<svg xmlns="http://www.w3.org/2000/svg" xmlns:xlink="http://www.w3.org/1999/xlink" width="680px" height="162px" viewBox="0 0 680 162"><title>Hallo-Primary-Logo</title><desc>Created with Sketch.</desc><defs><polygon id="path-1" points="0.4128 0.0894901961 26.528 0.0894901961 26.528 157.44953 0.4128 157.44953"></polygon><polygon id="path-3" points="0.1456 0.0894901961 26.2608 0.0894901961 26.2608 157.44953 0.1456 157.44953"></polygon></defs><g id="Page-1" stroke="none" stroke-width="1" fill="none" fill-rule="evenodd"><g id="Hallo-Primary-Logo" transform="translate(-88.000000, -82.000000)"><g transform="translate(88.000000, 81.000000)"><path d="M13.27264,8.06386569 L13.27424,8.06386569 C20.60544,8.06386569 26.54624,13.9989833 26.54624,21.319601 L26.54624,70.7932971 L98.63424,70.7932971 L98.63424,21.319601 C98.63424,13.9989833 104.57664,8.06386569 111.90624,8.06386569 C119.23744,8.06386569 125.17824,13.9989833 125.17824,21.319601 L125.17824,145.701385 C125.17824,153.022003 119.23744,158.957121 111.90624,158.957121 C104.57664,158.957121 98.63424,153.022003 98.63424,145.701385 L98.63424,95.3663461 L26.54624,95.3663461 L26.54624,145.701385 C26.54624,153.022003 20.60544,158.957121 13.27424,158.957121 L13.27264,158.957121 C5.94144,158.957121 0.00064,153.022003 0.00064,145.701385 L0.00064,21.319601 C0.00064,13.9989833 5.94144,8.06386569 13.27264,8.06386569" id="Fill-1" fill="#6D6E70"></path><path d="M220.5688,111.318453 C213.876,108.731227 204.596,106.791208 194.4536,106.791208 C178.052,106.791208 168.3368,113.474208 168.3368,124.468718 L168.3368,124.89859 C168.3368,135.677365 178.052,141.713159 190.3528,141.713159 C207.6184,141.713159 220.5688,132.011463 220.5688,117.785718 L220.5688,111.318453 Z M219.9224,146.024669 L219.9224,144.945992 C212.1512,154.216218 200.2792,161.32909 183.0152,161.32909 C161.4328,161.32909 142.4392,149.041767 142.4392,126.193002 L142.4392,125.761531 C142.4392,100.541276 162.0792,88.4680902 188.6264,88.4680902 C202.4392,88.4680902 211.2888,90.4097078 220.1368,93.2110706 L220.1368,91.0553157 C220.1368,75.3210216 210.2088,66.698002 192.0792,66.698002 C183.572,66.698002 176.5112,67.9476686 169.6712,70.0634725 C163.8888,71.8516784 157.74,68.6715804 155.7896,62.949002 C153.8152,57.1545118 156.836,50.7959137 162.6184,48.7696 C172.0072,45.4792373 182.212,43.4161686 195.748,43.4161686 C229.4184,43.4161686 245.82,61.0920804 245.82,91.4867863 L245.82,146.024669 C245.82,153.166306 240.0216,158.9576 232.8696,158.9576 C225.7192,158.9576 219.9224,153.166306 219.9224,146.024669 L219.9224,146.024669 Z" id="Fill-3" fill="#6D6E70"></path><g id="Group-7" transform="translate(267.200000, 1.508549)"><path d="M13.4704,0.0890107843 L13.4704,0.0890107843 C20.6816,0.0890107843 26.528,5.92824608 26.528,13.1306088 L26.528,144.407932 C26.528,151.610295 20.6816,157.44953 13.4704,157.44953 C6.2592,157.44953 0.4128,151.610295 0.4128,144.407932 L0.4128,13.1306088 C0.4128,5.92824608 6.2592,0.0890107843 13.4704,0.0890107843" id="Fill-5" fill="#6D6E70" mask="url(#mask-2)"></path></g><g id="Group-10" transform="translate(318.400000, 1.508549)"><path d="M13.2032,0.0890107843 L13.2032,0.0890107843 C20.4144,0.0890107843 26.2608,5.92824608 26.2608,13.1306088 L26.2608,144.407932 C26.2608,151.610295 20.4144,157.44953 13.2032,157.44953 C5.992,157.44953 0.1456,151.610295 0.1456,144.407932 L0.1456,13.1306088 C0.1456,5.92824608 5.992,0.0890107843 13.2032,0.0890107843" id="Fill-8" fill="#6D6E70" mask="url(#mask-4)"></path></g><path d="M457.1032,102.696232 L457.1032,102.264762 C457.1032,82.2189578 442.644,65.6185265 422.1384,65.6185265 C401.204,65.6185265 387.8232,82.0032225 387.8232,101.833291 L387.8232,102.264762 C387.8232,122.096428 402.284,138.910997 422.5704,138.910997 C443.7224,138.910997 457.1032,122.312164 457.1032,102.696232 M361.708,102.696232 L361.708,102.264762 C361.708,69.714301 387.6072,42.7697618 422.5704,42.7697618 C457.5352,42.7697618 483.22,69.2844284 483.22,101.833291 L483.22,102.264762 C483.22,134.597889 457.3192,161.544026 422.1384,161.544026 C387.3912,161.544026 361.708,135.030958 361.708,102.696232" id="Fill-11" fill="#6D6E70"></path><path d="M595.04064,77.0425892 C599.53984,78.950648 604.73344,76.8556186 606.64224,72.3619324 L628.43744,21.1048245 C630.34784,16.6111382 628.25024,11.4239029 623.75104,9.51584412 C619.25344,7.60778529 614.05984,9.70281471 612.14944,14.1949029 L590.35424,65.4536088 C588.44384,69.9472951 590.54144,75.1345304 595.04064,77.0425892" id="Fill-13" fill="#86BC25"></path><path d="M566.19216,70.7806725 C566.56976,70.9404765 566.96176,71.0763098 567.37136,71.1849765 C572.09136,72.4490255 576.94256,69.6524569 578.20816,64.9382412 L591.85296,14.1062118 C593.11856,9.39039804 590.32656,4.5355549 585.59696,3.28269216 C580.87856,2.01864314 576.02576,4.81521176 574.76016,9.52942745 L561.11536,60.3614569 C559.95856,64.6681725 562.19696,69.0851529 566.19216,70.7806725" id="Fill-15" fill="#FFC400"></path><path d="M618.45232,92.851352 C618.81392,93.0686853 619.18512,93.2572539 619.56112,93.4170578 C623.55632,95.1109794 628.29392,93.6519696 630.59312,89.8294598 L657.73872,44.7248029 C660.25712,40.5411363 658.90352,35.1125971 654.71472,32.5972833 C650.51792,30.0659892 645.08912,31.4371069 642.57232,35.6191755 L615.42672,80.7238324 C612.90992,84.907499 614.26352,90.3360382 618.45232,92.851352" id="Fill-17" fill="#6694F4"></path><path d="M676.41488,63.8407078 C672.61968,60.7628843 667.04688,61.3509627 663.97008,65.1447078 L635.92848,99.7214824 C632.85008,103.513629 633.43728,109.078002 637.23408,112.149433 C637.89328,112.683178 638.60368,113.106659 639.34768,113.421473 C642.88848,114.923629 647.13488,113.980786 649.67888,110.847031 L677.72048,76.2702569 C680.79728,72.4781098 680.21168,66.9121392 676.41488,63.8407078" id="Fill-19" fill="#FF4F4F"></path><path d="M629.34464,122.595176 C625.31584,119.830569 619.81184,120.834137 617.03584,124.85001 C605.08384,142.148784 585.58304,149.501363 569.61344,142.728873 C554.63104,136.373471 546.34304,119.049127 548.99104,99.6185686 C548.99904,99.5546471 548.99904,99.4907255 549.00704,99.428402 C553.91744,60.4138725 530.87904,46.6259902 529.89344,46.0586863 C525.66624,43.6136863 520.25184,45.0599118 517.80544,49.2867255 C515.36064,53.5135392 516.80704,58.9181078 521.03904,61.3615098 C521.17824,61.4414118 534.89504,70.1778922 531.43744,97.3333725 C531.43264,97.3685294 531.43744,97.4036863 531.43264,97.4388431 C527.78464,124.789284 540.32864,149.509353 562.69664,158.996912 C586.48864,169.088529 614.82304,159.174294 631.60224,134.888892 C634.37664,130.871422 633.36704,125.366176 629.34464,122.595176" id="Fill-21" fill="#FF4F4F"></path></g></g></g></svg>